<?xml version="1.0" encoding="UTF-8"?>
<svg xmlns="http://www.w3.org/2000/svg" xmlns:xlink="http://www.w3.org/1999/xlink" width="32pt" height="21pt" viewBox="0 0 32 21" version="1.1">
<g id="surface1">
<path style=" stroke:none;fill-rule:nonzero;fill:rgb(0%,0%,0%);fill-opacity:1;" d="M 7.976562 0.226562 C 2.851562 1.507812 -0.691406 6.800781 0.160156 11.9375 C 0.828125 15.863281 3.953125 19.3125 7.816406 20.316406 C 9.472656 20.75 12.574219 20.65625 14.136719 20.109375 C 14.875 19.859375 15.515625 19.585938 15.585938 19.539062 C 15.632812 19.46875 16.09375 19.628906 16.597656 19.882812 C 19.65625 21.433594 24.070312 21.113281 27.171875 19.152344 C 30.4375 17.050781 32.414062 12.578125 31.722656 8.8125 C 31.472656 7.53125 31.378906 7.28125 30.550781 5.59375 C 28.34375 1.117188 21.816406 -1.09375 17.058594 1.050781 C 16.34375 1.371094 16.207031 1.371094 14.757812 0.777344 C 13.515625 0.273438 12.78125 0.136719 11.035156 0.0898438 C 9.839844 0.046875 8.460938 0.113281 7.976562 0.226562 Z M 13.632812 2.261719 L 14.277344 2.511719 L 13.242188 3.699219 C 11.21875 6.003906 10.183594 9.722656 10.78125 12.53125 C 11.125 14.199219 12.023438 15.957031 13.101562 17.1875 L 14.023438 18.214844 L 13.171875 18.535156 C 12.691406 18.695312 11.472656 18.832031 10.460938 18.832031 C 8.941406 18.808594 8.367188 18.695312 7.242188 18.191406 C 2.804688 16.160156 0.898438 11.046875 2.964844 6.710938 C 4.046875 4.429688 5.195312 3.332031 7.5625 2.351562 C 8.667969 1.894531 9.125 1.824219 10.917969 1.894531 C 12.070312 1.941406 13.289062 2.101562 13.632812 2.261719 Z M 23.496094 2.328125 C 24.875 2.625 27.035156 3.996094 27.886719 5.089844 C 29.378906 7.054688 30.070312 9.859375 29.609375 12.210938 C 28.691406 16.800781 24.070312 19.90625 19.539062 18.96875 C 17.515625 18.558594 17.472656 18.464844 18.621094 17.1875 C 22.070312 13.351562 22.183594 7.828125 18.898438 3.742188 L 17.953125 2.554688 L 19.148438 2.238281 C 20.390625 1.894531 21.632812 1.917969 23.496094 2.328125 Z M 17.082031 4.609375 C 18.09375 5.867188 18.527344 6.734375 18.941406 8.285156 C 19.632812 10.957031 18.621094 14.539062 16.644531 16.457031 L 15.863281 17.210938 L 15.082031 16.457031 C 13.425781 14.859375 12.4375 11.9375 12.734375 9.519531 C 12.828125 8.832031 13.195312 7.667969 13.5625 6.894531 C 14.183594 5.59375 15.699219 3.652344 16.09375 3.652344 C 16.207031 3.652344 16.644531 4.085938 17.082031 4.609375 Z M 17.082031 4.609375 "/>
</g>
</svg>
