<?xml version="1.0" encoding="UTF-8"?>
<svg xmlns="http://www.w3.org/2000/svg" xmlns:xlink="http://www.w3.org/1999/xlink" width="24pt" height="16pt" viewBox="0 0 24 16" version="1.1">
<g id="surface1">
<path style=" stroke:none;fill-rule:nonzero;fill:rgb(0%,0%,0%);fill-opacity:1;" d="M 5.984375 0.175781 C 2.136719 1.148438 -0.515625 5.183594 0.121094 9.09375 C 0.621094 12.085938 2.964844 14.714844 5.863281 15.476562 C 7.101562 15.808594 9.429688 15.738281 10.601562 15.320312 C 11.15625 15.128906 11.636719 14.921875 11.691406 14.886719 C 11.722656 14.835938 12.070312 14.957031 12.449219 15.148438 C 14.742188 16.332031 18.050781 16.085938 20.378906 14.589844 C 22.828125 12.992188 24.308594 9.582031 23.792969 6.714844 C 23.601562 5.738281 23.535156 5.546875 22.914062 4.261719 C 21.257812 0.851562 16.363281 -0.835938 12.792969 0.800781 C 12.257812 1.042969 12.15625 1.042969 11.070312 0.589844 C 10.136719 0.207031 9.585938 0.105469 8.277344 0.0703125 C 7.378906 0.0351562 6.34375 0.0859375 5.984375 0.175781 Z M 10.222656 1.722656 L 10.707031 1.914062 L 9.929688 2.816406 C 8.414062 4.574219 7.636719 7.410156 8.085938 9.546875 C 8.34375 10.816406 9.015625 12.15625 9.828125 13.09375 L 10.515625 13.878906 L 9.878906 14.121094 C 9.515625 14.242188 8.601562 14.347656 7.84375 14.347656 C 6.707031 14.332031 6.277344 14.242188 5.429688 13.859375 C 2.101562 12.3125 0.671875 8.417969 2.222656 5.113281 C 3.035156 3.375 3.898438 2.539062 5.671875 1.792969 C 6.5 1.445312 6.84375 1.390625 8.191406 1.445312 C 9.050781 1.476562 9.964844 1.601562 10.222656 1.722656 Z M 17.621094 1.773438 C 18.65625 2 20.277344 3.042969 20.914062 3.878906 C 22.035156 5.375 22.550781 7.511719 22.207031 9.304688 C 21.515625 12.800781 18.050781 15.164062 14.65625 14.453125 C 13.136719 14.140625 13.101562 14.070312 13.964844 13.09375 C 16.550781 10.175781 16.636719 5.964844 14.171875 2.851562 L 13.464844 1.949219 L 14.363281 1.703125 C 15.292969 1.445312 16.222656 1.460938 17.621094 1.773438 Z M 12.808594 3.511719 C 13.570312 4.46875 13.898438 5.128906 14.207031 6.3125 C 14.722656 8.347656 13.964844 11.078125 12.484375 12.539062 L 11.898438 13.113281 L 11.308594 12.539062 C 10.070312 11.320312 9.328125 9.09375 9.550781 7.253906 C 9.621094 6.730469 9.898438 5.84375 10.171875 5.253906 C 10.636719 4.261719 11.777344 2.78125 12.070312 2.78125 C 12.15625 2.78125 12.484375 3.113281 12.808594 3.511719 Z M 12.808594 3.511719 "/>
</g>
</svg>
